<svg xmlns="http://www.w3.org/2000/svg" viewBox="0 0 1249.51 316.84"><defs><style>.cls-1{fill:#fff;}</style></defs><title>Asset 4</title><g id="Layer_2" data-name="Layer 2"><g id="Layer_1-2" data-name="Layer 1"><path class="cls-1" d="M1244.88,200.39a17,17,0,0,0-.83-1.8c-.32,1.36-.54,2.21-.72,3.06-1.74,8.09-14.65,64.73-62.91,69.18,9.14-17.36,43.33-21.67,50.1-84.2,2.21-19.51-.77-38.1-10.16-55.48-10.43-19.3-26.06-33.45-44.7-44.47-6-3.54-12.38-6.47-18.58-9.68l-.52.74c.78,1.19,1.69,2.32,2.34,3.57,4.1,8,9,15.63,12.07,24,10.54,28.46,2.2,55.94-21.57,73.45-.83.61-1.7,1.15-3.24,2.18,7.74-19.18,9.88-37.47-1-55.44a57,57,0,0,1-4.61,19.48c-5,11.15-13.12,19.72-22.94,26.67a116.89,116.89,0,0,0-30.69,32.27c-5.79,8.89-11.33,22.6-11.13,33.06,1.12,31.08,6.61,42.33,24.92,59.4,18.12,16.89,46.46,23.49,70.89,19.13a103.41,103.41,0,0,0,55.81-29A72.07,72.07,0,0,0,1245,258.09C1251.49,238.84,1250.55,219.61,1244.88,200.39ZM1159,232.67l-24.25,26.58c-6-17-4.09-32.88,5-40,5.67-4.45,16.61-7.4,20.75-2.42C1163.27,220.21,1162.46,226.6,1159,232.67Z"/><path class="cls-1" d="M172.37,115.2v122c0,55.82-24.63,79.62-85.37,79.62-56.36,0-73.32-18.06-73.32-38.85,0-17,11.77-30.92,33.1-37.48C18.33,234.21,0,208,0,177c0-36.11,24.9-65.39,61.29-65.39a59.28,59.28,0,0,1,44,18.88V115.2ZM68.13,182.78c0,12.58,7.38,23,18.6,23s18.88-10.4,18.88-23c0-12.31-7.66-22.71-18.88-22.71S68.13,170.47,68.13,182.78Zm36.11,58.82s-26.81,2.46-26.81,21.61c0,9,4.65,14,12.86,14,8.48,0,13.95-5.47,13.95-16.42Z"/><path class="cls-1" d="M257.07,204.51v54.18H187.3v-145h65.11V139.4c5.48-12,15.6-35,47.61-27.91v54.17C272.93,162.11,257.07,176.06,257.07,204.51Z"/><path class="cls-1" d="M518.93,108.6c-26.53,0-51.43,4.38-69.76,11.49l9.57,43.23c12.86-4.92,29.83-7.93,45.42-7.93,17.51,0,25.44,4.65,25.44,13.4v1.37c-6.29-1.37-21.34-2.73-28.45-2.73-32.34,0-53.4,10.55-60.09,31.2v0c0,.16-.07.3-.11.44a45.06,45.06,0,0,0-1.48,6.36c-3.78,15.05-18.55,61.43-62,65.44,9.14-17.36,43.33-21.67,50.1-84.2,2.21-19.51-.77-38.1-10.16-55.48-10.43-19.3-26.06-33.45-44.7-44.47-6-3.54-12.38-6.47-18.58-9.68l-.52.74c.78,1.19,1.69,2.32,2.34,3.57,4.1,8,9,15.63,12.07,24,10.54,28.46,2.2,55.94-21.57,73.45-.83.61-1.7,1.15-3.24,2.18,7.74-19.18,9.88-37.47-1-55.44a57,57,0,0,1-4.61,19.48c-5,11.15-13.12,19.72-22.94,26.67a116.89,116.89,0,0,0-30.69,32.27c-5.79,8.89-11.33,22.6-11.13,33.06,1.12,31.08,6.61,42.33,24.92,59.4,18.12,16.89,46.46,23.49,70.89,19.13a103.41,103.41,0,0,0,55.81-29A72.07,72.07,0,0,0,442,258.09a85.17,85.17,0,0,0,4.07-19c8.37,12.92,23.35,21.59,41.95,21.59,18.33,0,31.73-7.11,42.4-17v13.41h69V171.53C599.37,130.22,572.83,108.6,518.93,108.6ZM356,232.67l-24.25,26.58c-6-17-4.09-32.88,5-40,5.67-4.45,16.61-7.4,20.75-2.42C360.27,220.21,359.46,226.6,356,232.67Zm175.29-29.4c0,10.12-3.83,18.88-15,18.88-7.66,0-12-4.66-12-11.22,0-8.21,6.29-13.41,17-13.41a53.92,53.92,0,0,1,10.13.82Z"/><path class="cls-1" d="M608.31,115.2h15.05V81.55h69.77V115.2H718.3v47.88H693.13v38.58c0,11.49,8.48,15.59,17,15.59a61.18,61.18,0,0,0,7.39-.55L723,255.28c-10.67,4.65-28.73,8.48-46.79,8.48-30.91,0-52.8-11.22-52.8-45.14V163.08H608.31Z"/><path class="cls-1" d="M906.66,132.68H873v123H803.24v-123H787.92V84.8h15.32v-.55c0-48.15,41.86-60.19,81.25-60.19,24.63,0,46.24,3.83,60.47,8.76L939.49,74.4c-4.65-1.64-21.07-5.74-34.48-5.74-14,0-32,1.09-32,15v1.1H976.42V255.65H906.66Z"/><path class="cls-1" d="M1059.6,203v54.18H989.83v-145H1055v25.72c5.47-12,15.6-35,47.61-27.91v54.17C1075.47,160.59,1059.6,174.54,1059.6,203Z"/><path class="cls-1" d="M105.73,25.35h6.67V10.43h30.93V25.35h11.15V46.57H143.33v17.1c0,5.1,3.76,6.91,7.52,6.91a27.9,27.9,0,0,0,3.27-.24l2.43,17.1c-4.73,2.06-12.74,3.76-20.74,3.76-13.71,0-23.41-5-23.41-20V46.57h-6.67Z"/><path class="cls-1" d="M240.11,89.63H209.18V52.88a5.7,5.7,0,1,0-11.4,0V89.63H166.86V0h30.92V31.29c4.37-4.49,10.8-7.52,19.17-7.52,13,0,23.16,9.46,23.16,22.2Z"/><path class="cls-1" d="M276.31,64.64c2.67,5.46,9.34,6.91,17.59,6.91a52.65,52.65,0,0,0,16.85-3l3.16,18.19c-7.4,2.92-17.59,4.49-27.41,4.49-20.86,0-38.2-11-38.2-34.44,0-20.13,16-33,34.8-33,26.93,0,36.75,17.83,33.6,40.87Zm15.16-14.43c-.6-4.61-2.79-8.49-7.64-8.49-5.09,0-7.4,3.88-8.37,8.49Zm0,0h0Z"/></g></g></svg>